<svg xmlns="http://www.w3.org/2000/svg" width="110" height="110" viewBox="0 0 110 110">
    <g fill="none" fill-rule="evenodd">
        <g fill-rule="nonzero">
            <g>
                <g>
                    <g>
                        <path fill="#FFF8E5" d="M55 0C24.672 0 0 24.672 0 55s24.672 55 55 55 55-24.672 55-55S85.328 0 55 0z" transform="translate(-40 -7793) translate(0 6947) translate(40 846)"/>
                        <g fill="#FFC107">
                            <path d="M11.917 52.01c0 3.282-2.668 5.943-5.959 5.943-3.29 0-5.958-2.66-5.958-5.944 0-3.282 2.668-5.944 5.958-5.944s5.959 2.662 5.959 5.944zM5.958 0c3.29 0 5.959 2.661 5.959 5.944v28.234c0 3.282-2.668 5.943-5.959 5.943-3.29 0-5.958-2.66-5.958-5.943V5.944C0 2.661 2.668 0 5.958 0z" transform="translate(-40 -7793) translate(0 6947) translate(40 846) translate(50 26)"/>
                        </g>
                    </g>
                </g>
            </g>
        </g>
    </g>
</svg>
