<svg xmlns="http://www.w3.org/2000/svg" width="110" height="110" viewBox="0 0 110 110">
    <g fill="none" fill-rule="evenodd">
        <g>
            <g>
                <g transform="translate(-514 -7400) translate(0 6947) translate(514 453)">
                    <circle cx="55" cy="55" r="55" fill="#00D498"/>
                    <path fill="#FFF" fill-rule="nonzero" d="M37.721 53.315c-1.113-1.052-2.853-.987-3.886.146-1.034 1.134-.97 2.905.144 3.957l3.742-4.103zM48.683 67.5l-1.87 2.052c1.069 1.011 2.728.995 3.78-.036l-1.91-2.016zM76.26 44.316c1.093-1.074 1.125-2.847.07-3.96-1.054-1.113-2.795-1.145-3.888-.072l3.818 4.032zm-42.28 13.102l12.833 12.134 3.743-4.104L37.72 53.315l-3.742 4.103zm16.613 12.098l25.667-25.2-3.818-4.032-25.667 25.2 3.818 4.032z"/>
                </g>
            </g>
        </g>
    </g>
</svg>
